<svg width="200" height="200" viewBox="0 0 200 200" fill="none" xmlns="http://www.w3.org/2000/svg">
<g clip-path="url(#clip0_104_215)">
<path fill-rule="evenodd" clip-rule="evenodd" d="M100 100C100 100 112.5 66.5265 112.5 42.8571C112.5 19.1878 106.904 0 100 0C93.0964 0 87.5 19.1878 87.5 42.8571C87.5 66.5265 100 100 100 100ZM100 100C100 100 114.831 132.508 131.567 149.245C148.304 165.982 165.829 175.592 170.711 170.711C175.592 165.829 165.982 148.304 149.245 131.567C132.508 114.831 100 100 100 100ZM100 100C100 100 133.474 87.5 157.143 87.5C180.812 87.5 200 93.0964 200 100C200 106.904 180.812 112.5 157.143 112.5C133.474 112.5 100 100 100 100ZM100 100C100 100 67.4918 114.831 50.755 131.567C34.0183 148.304 24.4077 165.829 29.2893 170.711C34.1709 175.592 51.696 165.982 68.4327 149.245C85.1695 132.508 100 100 100 100ZM100 100L100 100C100.028 100.074 112.5 133.5 112.5 157.143C112.5 180.812 106.904 200 100 200C93.0964 200 87.5 180.812 87.5 157.143C87.5 133.474 100 100 100 100ZM100 100C100 100 66.5265 87.5 42.8571 87.5C19.1878 87.5 0 93.0964 0 100C0 106.904 19.1878 112.5 42.8571 112.5C66.5265 112.5 100 100 100 100ZM100 99.9999C100 99.9999 132.508 85.1694 149.245 68.4327C165.982 51.6959 175.592 34.1708 170.711 29.2893C165.829 24.4077 148.304 34.0183 131.567 50.755C114.831 67.4918 100 99.9999 100 99.9999ZM68.4327 50.755C85.1695 67.4918 100 100 100 100C100 100 67.4918 85.1695 50.7551 68.4327C34.0183 51.696 24.4078 34.1709 29.2893 29.2893C34.1709 24.4078 51.696 34.0183 68.4327 50.755Z" fill="url(#paint0_linear_104_215)"/>
</g>
<defs>
<linearGradient id="paint0_linear_104_215" x1="157.5" y1="32" x2="44" y2="147.5" gradientUnits="userSpaceOnUse">
<stop offset="0.0509862" stop-color="#FFB6E1"/>
<stop offset="1" stop-color="#FBE3EA"/>
</linearGradient>
<clipPath id="clip0_104_215">
<rect width="200" height="200" fill="white"/>
</clipPath>
</defs>
</svg>