<svg width="200" height="200" viewBox="0 0 200 200" fill="none" xmlns="http://www.w3.org/2000/svg">
<g clip-path="url(#clip0_119_272)">
<path d="M165.219 191.946C165.619 196.381 154.532 202.035 151.044 199.266C121.008 175.429 79.0176 175.423 48.9751 199.247C45.4855 202.014 34.3857 196.351 34.7842 191.916C36.6166 171.522 28.4775 163.383 8.0835 165.215C3.6476 165.614 -2.01503 154.513 0.752417 151.024C24.5761 120.983 24.5695 78.9977 0.732847 48.964C-2.03561 45.4758 3.61792 34.3877 8.05326 34.7871C28.4695 36.6256 36.6176 28.4874 34.7842 8.08354C34.3856 3.64769 45.4855 -2.01499 48.9751 0.752346C79.0176 24.5765 121.008 24.57 151.044 0.732785C154.532 -2.03555 165.619 3.61799 165.219 8.05328C163.379 28.4788 171.525 36.6261 191.946 34.7872C196.381 34.3878 202.035 45.475 199.267 48.9634C175.436 78.9973 175.429 120.984 199.248 151.024C202.015 154.514 196.352 165.614 191.916 165.215C171.517 163.383 163.38 171.531 165.219 191.946Z" fill="url(#paint0_linear_119_272)"/>
</g>
<defs>
<linearGradient id="paint0_linear_119_272" x1="14" y1="25.9999" x2="178.999" y2="179.5" gradientUnits="userSpaceOnUse">
<stop stop-color="#E9B8FF"/>
<stop offset="1" stop-color="#F9ECFF"/>
</linearGradient>
<clipPath id="clip0_119_272">
<rect width="200" height="200" fill="white"/>
</clipPath>
</defs>
</svg>
