<svg width="200" height="200" viewBox="0 0 200 200" fill="none" xmlns="http://www.w3.org/2000/svg">
<g clip-path="url(#clip0_118_198)">
<path d="M100 0L102.665 74.6397L120.791 2.18524L107.88 75.7481L140.674 8.64545L112.75 77.9164L158.779 19.0983L117.063 81.0498L174.314 33.0869L120.63 85.0115L186.603 50L123.295 89.6282L195.106 69.0983L124.943 94.6982L199.452 89.5471L125.5 100L199.452 110.453L124.943 105.302L195.106 130.902L123.295 110.372L186.603 150L120.63 114.989L174.314 166.913L117.063 118.95L158.779 180.902L112.75 122.084L140.674 191.355L107.88 124.252L120.791 197.815L102.665 125.36L100 200L97.3345 125.36L79.2088 197.815L92.1201 124.252L59.3263 191.355L87.25 122.084L41.2215 180.902L82.9372 118.95L25.6855 166.913L79.3701 114.989L13.3975 150L76.7046 110.372L4.89435 130.902L75.0572 105.302L0.547813 110.453L74.5 100L0.547813 89.5471L75.0572 94.6982L4.89435 69.0983L76.7046 89.6282L13.3975 50L79.3701 85.0115L25.6855 33.0869L82.9372 81.0498L41.2215 19.0983L87.25 77.9164L59.3263 8.64545L92.1201 75.7481L79.2088 2.18524L97.3345 74.6397L100 0Z" fill="url(#paint0_linear_118_198)"/>
</g>
<defs>
<linearGradient id="paint0_linear_118_198" x1="100" y1="0" x2="100" y2="200" gradientUnits="userSpaceOnUse">
<stop stop-color="#B8DBFC"/>
<stop offset="1" stop-color="#F8FBFE"/>
</linearGradient>
<clipPath id="clip0_118_198">
<rect width="200" height="200" fill="white"/>
</clipPath>
</defs>
</svg>
