<svg width="200" height="200" viewBox="0 0 200 200" fill="none" xmlns="http://www.w3.org/2000/svg">
<g clip-path="url(#clip0_116_159)">
<path d="M100 0L101.384 87.0669C101.44 90.5691 105.651 92.3134 108.167 89.8763L170.711 29.2893L110.124 91.8335C107.687 94.3493 109.431 98.5604 112.933 98.6161L200 100L112.933 101.384C109.431 101.44 107.687 105.651 110.124 108.167L170.711 170.711L108.167 110.124C105.651 107.687 101.44 109.431 101.384 112.933L100 200L98.6161 112.933C98.5604 109.431 94.3493 107.687 91.8335 110.124L29.2893 170.711L89.8763 108.167C92.3134 105.651 90.5691 101.44 87.0669 101.384L0 100L87.0669 98.6161C90.5691 98.5604 92.3134 94.3493 89.8763 91.8335L29.2893 29.2893L91.8335 89.8763C94.3493 92.3134 98.5604 90.5691 98.6161 87.0669L100 0Z" fill="url(#paint0_linear_116_159)"/>
</g>
<defs>
<linearGradient id="paint0_linear_116_159" x1="27.5" y1="19" x2="149" y2="174.5" gradientUnits="userSpaceOnUse">
<stop stop-color="#FFD9A0"/>
<stop offset="1" stop-color="#FFF5F1"/>
</linearGradient>
<clipPath id="clip0_116_159">
<rect width="200" height="200" fill="white"/>
</clipPath>
</defs>
</svg>
