<svg width="200" height="200" viewBox="0 0 200 200" fill="none" xmlns="http://www.w3.org/2000/svg">
<g clip-path="url(#clip0_104_178)">
<path fill-rule="evenodd" clip-rule="evenodd" d="M112.548 87.4518C121.709 83.5318 135.093 81.0606 150 81.0606C177.614 81.0606 200 89.5401 200 100C200 110.46 177.614 118.939 150 118.939C135.093 118.939 121.709 116.468 112.548 112.548C116.468 121.709 118.939 135.093 118.939 150C118.939 177.614 110.46 200 100 200C89.5401 200 81.0606 177.614 81.0606 150C81.0606 135.093 83.5318 121.709 87.4518 112.548C78.2912 116.468 64.9075 118.939 50 118.939C22.3858 118.939 0 110.46 0 100C0 89.5401 22.3858 81.0606 50 81.0606C64.9075 81.0606 78.2912 83.5318 87.4518 87.4518C83.5318 78.2912 81.0606 64.9075 81.0606 50C81.0606 22.3858 89.5401 0 100 0C110.46 0 118.939 22.3858 118.939 50C118.939 64.9075 116.468 78.2912 112.548 87.4518Z" fill="url(#paint0_linear_104_178)"/>
</g>
<defs>
<linearGradient id="paint0_linear_104_178" x1="100" y1="0" x2="100" y2="200" gradientUnits="userSpaceOnUse">
<stop stop-color="#B8DBFC"/>
<stop offset="1" stop-color="#F8FBFE"/>
</linearGradient>
<clipPath id="clip0_104_178">
<rect width="200" height="200" fill="white"/>
</clipPath>
</defs>
</svg>
