<svg width="200" height="200" viewBox="0 0 200 200" fill="none" xmlns="http://www.w3.org/2000/svg">
<g clip-path="url(#clip0_104_86)">
<path fill-rule="evenodd" clip-rule="evenodd" d="M110 0C115.523 0 120 4.47715 120 10V27.5736C120 36.4826 130.771 40.9443 137.071 34.6446L149.497 22.2182C153.403 18.313 159.734 18.313 163.64 22.2182L177.782 36.3604C181.687 40.2656 181.687 46.5973 177.782 50.5025L165.355 62.9289C159.056 69.2286 163.517 80 172.426 80H190C195.523 80 200 84.4771 200 90V110C200 115.523 195.523 120 190 120H172.426C163.517 120 159.056 130.771 165.355 137.071L177.782 149.497C181.687 153.403 181.687 159.734 177.782 163.64L163.64 177.782C159.734 181.687 153.403 181.687 149.497 177.782L137.071 165.355C130.771 159.056 120 163.517 120 172.426V190C120 195.523 115.523 200 110 200H90C84.4771 200 80 195.523 80 190V172.426C80 163.517 69.2286 159.056 62.9289 165.355L50.5025 177.782C46.5973 181.687 40.2656 181.687 36.3604 177.782L22.2183 163.64C18.313 159.734 18.313 153.403 22.2183 149.497L34.6447 137.071C40.9443 130.771 36.4827 120 27.5736 120H10C4.47716 120 0 115.523 0 110V90C0 84.4771 4.47715 80 10 80H27.5736C36.4826 80 40.9443 69.2286 34.6447 62.9289L22.2183 50.5025C18.313 46.5972 18.313 40.2656 22.2183 36.3604L36.3604 22.2182C40.2656 18.313 46.5973 18.313 50.5025 22.2182L62.9289 34.6446C69.2286 40.9443 80 36.4826 80 27.5736V10C80 4.47715 84.4771 0 90 0H110ZM100 150C127.614 150 150 127.614 150 100C150 72.3858 127.614 50 100 50C72.3858 50 50 72.3858 50 100C50 127.614 72.3858 150 100 150Z" fill="url(#paint0_linear_104_86)"/>
</g>
<defs>
<linearGradient id="paint0_linear_104_86" x1="100" y1="0" x2="100" y2="200" gradientUnits="userSpaceOnUse">
<stop stop-color="#B8DBFC"/>
<stop offset="1" stop-color="#F8FBFE"/>
</linearGradient>
<clipPath id="clip0_104_86">
<rect width="200" height="200" fill="white"/>
</clipPath>
</defs>
</svg>
