<svg width="200" height="200" viewBox="0 0 200 200" fill="none" xmlns="http://www.w3.org/2000/svg">
<g clip-path="url(#clip0_133_15)">
<path fill-rule="evenodd" clip-rule="evenodd" d="M100.387 91.8532C96.2415 40.435 53.2 0 0.714282 0C0.714282 52.2424 40.7753 95.1281 91.8532 99.6128C40.435 103.758 -5.33517e-06 146.8 -7.62939e-06 199.286C52.2424 199.286 95.1281 159.225 99.6128 108.147C103.758 159.565 146.8 200 199.286 200C199.286 147.758 159.225 104.872 108.147 100.387C159.565 96.2416 200 53.2 200 0.714286C147.758 0.714283 104.872 40.7753 100.387 91.8532ZM99.9975 100.002C99.9991 100.002 100.001 100.003 100.002 100.003L100.003 99.9975C100.001 99.9975 99.9992 99.9975 99.9975 99.9975C99.9975 99.9991 99.9975 100.001 99.9975 100.002Z" fill="url(#paint0_linear_133_15)"/>
</g>
<defs>
<linearGradient id="paint0_linear_133_15" x1="177" y1="-9.23648e-06" x2="39.5" y2="152.5" gradientUnits="userSpaceOnUse">
<stop stop-color="#B0B9FF"/>
<stop offset="1" stop-color="#E7E9FF"/>
</linearGradient>
<clipPath id="clip0_133_15">
<rect width="200" height="200" fill="white"/>
</clipPath>
</defs>
</svg>
