<svg width="200" height="200" viewBox="0 0 200 200" fill="none" xmlns="http://www.w3.org/2000/svg">
<g clip-path="url(#clip0_105_553)">
<path fill-rule="evenodd" clip-rule="evenodd" d="M58.658 147.786C57.3447 144.947 55.0568 142.659 52.2173 141.345C30.1168 131.123 12.6336 116.382 3.3014 107.542C-1.10048 103.372 -1.10046 96.6313 3.30141 92.4614C12.6336 83.621 30.1168 68.8801 52.2172 58.6581C55.0568 57.3447 57.3447 55.0568 58.658 52.2173C68.8801 30.1169 83.621 12.6336 92.4614 3.3014C96.6313 -1.10047 103.372 -1.10046 107.542 3.30141C116.382 12.6336 131.123 30.1169 141.345 52.2173C142.659 55.0568 144.947 57.3447 147.786 58.658C169.887 68.8801 187.37 83.621 196.702 92.4614C201.104 96.6313 201.104 103.372 196.702 107.542C187.37 116.382 169.887 131.123 147.786 141.345C144.947 142.659 142.659 144.947 141.345 147.786C131.123 169.887 116.382 187.37 107.542 196.702C103.372 201.104 96.6313 201.104 92.4614 196.702C83.621 187.37 68.8801 169.887 58.658 147.786ZM100.002 136.761C120.303 136.761 136.761 120.303 136.761 100.002C136.761 79.7002 120.303 63.2426 100.002 63.2426C79.7003 63.2426 63.2428 79.7002 63.2428 100.002C63.2428 120.303 79.7003 136.761 100.002 136.761Z" fill="url(#paint0_linear_105_553)"/>
</g>
<defs>
<linearGradient id="paint0_linear_105_553" x1="100.002" y1="0" x2="100.002" y2="200.003" gradientUnits="userSpaceOnUse">
<stop stop-color="#B8DBFC"/>
<stop offset="1" stop-color="#F8FBFE"/>
</linearGradient>
<clipPath id="clip0_105_553">
<rect width="200" height="200" fill="white"/>
</clipPath>
</defs>
</svg>
