<svg width="200" height="200" viewBox="0 0 200 200" fill="none" xmlns="http://www.w3.org/2000/svg">
<g clip-path="url(#clip0_105_323)">
<path fill-rule="evenodd" clip-rule="evenodd" d="M106.973 87.6003C103.915 93.0385 96.0852 93.0385 93.027 87.6003L50.4686 11.9213C47.4696 6.58851 51.3234 7.97602e-06 57.4416 5.67316e-06L142.558 0C148.677 -5.34872e-07 152.53 6.58849 149.531 11.9213L106.973 87.6003ZM87.6003 106.973C93.0385 103.915 93.0385 96.0851 87.6003 93.0269L11.9213 50.4685C6.58848 47.4696 -1.12708e-05 51.3233 -1.15382e-05 57.4415L-1.52588e-05 142.558C-1.55262e-05 148.677 6.58849 152.53 11.9213 149.531L87.6003 106.973ZM106.973 112.4C103.915 106.961 96.0852 106.962 93.027 112.4L50.4686 188.079C47.4697 193.412 51.3234 200 57.4416 200H142.558C148.677 200 152.53 193.411 149.531 188.079L106.973 112.4ZM112.4 93.027C106.961 96.0853 106.961 103.915 112.4 106.973L188.079 149.531C193.412 152.53 200 148.677 200 142.558V57.4417C200 51.3235 193.411 47.4697 188.079 50.4687L112.4 93.027Z" fill="url(#paint0_linear_105_323)"/>
</g>
<defs>
<linearGradient id="paint0_linear_105_323" x1="100" y1="0" x2="100" y2="200" gradientUnits="userSpaceOnUse">
<stop stop-color="#DF99F7"/>
<stop offset="1" stop-color="#FFDBB0"/>
</linearGradient>
<clipPath id="clip0_105_323">
<rect width="200" height="200" fill="white"/>
</clipPath>
</defs>
</svg>
