<svg width="200" height="200" viewBox="0 0 200 200" fill="none" xmlns="http://www.w3.org/2000/svg">
<path d="M146.171 100C161.187 97.0302 175.962 89.6912 184.977 80.047L195.212 69.0981L180.496 66.2558C167.534 63.7521 151.267 66.5 137.373 72.9237C147.776 61.6944 155.416 47.0726 157.04 33.9716L158.885 19.0981L145.309 25.4484C133.351 31.0419 121.806 42.826 114.34 56.1898C116.156 40.9907 113.743 24.6707 107.356 13.1167L100.106 0L92.8553 13.1167C86.4688 24.6707 84.0554 40.9907 85.8712 56.1898C78.406 42.826 66.8609 31.0414 54.9028 25.4484L41.327 19.0981L43.1712 33.9716C44.7958 47.0726 52.4358 61.6944 62.8386 72.9237C48.9446 66.5 32.6772 63.7526 19.7153 66.2558L5 69.0981L15.2344 80.047C24.2493 89.6912 39.0242 97.0298 54.0409 100C39.0247 102.97 24.2493 110.308 15.2344 119.953L5 130.902L19.7153 133.744C32.6772 136.248 48.9442 133.5 62.8386 127.076C52.4358 138.306 44.7958 152.927 43.1712 166.028L41.327 180.901L54.9023 174.552C66.8605 168.958 78.4056 157.174 85.8707 143.81C84.0549 159.009 86.4684 175.329 92.8549 186.883L100.105 200L107.355 186.883C113.742 175.329 116.155 159.009 114.34 143.81C121.805 157.174 133.35 168.959 145.308 174.552L158.883 180.901L157.039 166.028C155.414 152.927 147.774 138.306 137.372 127.076C151.266 133.5 167.533 136.247 180.495 133.744L195.21 130.902L184.976 119.953C175.962 110.309 161.187 102.97 146.171 100Z" fill="url(#paint0_linear_116_118)"/>
<defs>
<linearGradient id="paint0_linear_116_118" x1="100.106" y1="0" x2="100.106" y2="200" gradientUnits="userSpaceOnUse">
<stop stop-color="#B8DBFC"/>
<stop offset="1" stop-color="#F8FBFE"/>
</linearGradient>
</defs>
</svg>
