<svg width="200" height="200" viewBox="0 0 200 200" fill="none" xmlns="http://www.w3.org/2000/svg">
<g clip-path="url(#clip0_116_2)">
<path fill-rule="evenodd" clip-rule="evenodd" d="M29.2893 29.2893C19.2658 39.3128 15.6458 53.315 18.4294 66.2123C7.34132 73.3638 0 85.8246 0 100C-1.74156e-06 114.175 7.34132 126.636 18.4294 133.788C15.6458 146.685 19.2658 160.687 29.2893 170.711C39.3129 180.734 53.315 184.354 66.2123 181.571C73.3639 192.659 85.8246 200 100 200C114.175 200 126.636 192.659 133.788 181.571C146.685 184.354 160.687 180.734 170.711 170.711C180.734 160.687 184.354 146.685 181.571 133.788C192.659 126.636 200 114.175 200 100C200 85.8246 192.659 73.3638 181.571 66.2123C184.354 53.315 180.734 39.3129 170.711 29.2893C160.687 19.2658 146.685 15.6458 133.788 18.4294C126.636 7.34133 114.175 0 100 0C85.8246 0 73.3638 7.34131 66.2123 18.4293C53.315 15.6458 39.3129 19.2658 29.2893 29.2893Z" fill="url(#paint0_linear_116_2)"/>
</g>
<defs>
<linearGradient id="paint0_linear_116_2" x1="177" y1="-9.23648e-06" x2="39.5" y2="152.5" gradientUnits="userSpaceOnUse">
<stop stop-color="#B0B9FF"/>
<stop offset="1" stop-color="#E7E9FF"/>
</linearGradient>
<clipPath id="clip0_116_2">
<rect width="200" height="200" fill="white"/>
</clipPath>
</defs>
</svg>
