<svg width="200" height="200" viewBox="0 0 200 200" fill="none" xmlns="http://www.w3.org/2000/svg">
<g clip-path="url(#clip0_104_106)">
<path fill-rule="evenodd" clip-rule="evenodd" d="M101.604 0.859655C100.827 -0.435397 98.9501 -0.435396 98.1734 0.859656L79.3113 32.3082C78.7978 33.1643 77.7318 33.5106 76.8132 33.1199L43.0684 18.7644C41.6788 18.1732 40.1604 19.2764 40.2932 20.7806L43.5184 57.3099C43.6062 58.3043 42.9474 59.2111 41.9745 59.4349L6.23647 67.6557C4.76478 67.9943 4.18481 69.7792 5.17645 70.9182L29.2571 98.5752C29.9126 99.3281 29.9126 100.449 29.2571 101.202L5.17645 128.859C4.18481 129.998 4.76478 131.783 6.23648 132.121L41.9745 140.342C42.9474 140.566 43.6062 141.473 43.5184 142.467L40.2932 178.996C40.1604 180.501 41.6788 181.604 43.0684 181.013L76.8132 166.657C77.7318 166.266 78.7978 166.613 79.3113 167.469L98.1734 198.917C98.9501 200.213 100.827 200.212 101.604 198.917L120.466 167.469C120.979 166.613 122.045 166.266 122.964 166.657L156.709 181.013C158.098 181.604 159.617 180.501 159.484 178.996L156.259 142.467C156.171 141.473 156.83 140.566 157.803 140.342L193.541 132.121C195.012 131.783 195.592 129.998 194.601 128.859L170.52 101.202C169.865 100.449 169.865 99.3281 170.52 98.5752L194.601 70.9182C195.592 69.7792 195.012 67.9943 193.541 67.6557L157.803 59.4349C156.83 59.2111 156.171 58.3043 156.259 57.3099L159.484 20.7806C159.617 19.2764 158.098 18.1732 156.709 18.7644L122.964 33.1199C122.045 33.5106 120.979 33.1643 120.466 32.3082L101.604 0.859655ZM100 150C127.614 150 150 127.614 150 100C150 72.3857 127.614 50 100 50C72.3858 50 50 72.3857 50 100C50 127.614 72.3858 150 100 150Z" fill="url(#paint0_linear_104_106)"/>
</g>
<defs>
<linearGradient id="paint0_linear_104_106" x1="24.2004" y1="15.8884" x2="106.37" y2="196.947" gradientUnits="userSpaceOnUse">
<stop stop-color="#ACAAFF"/>
<stop offset="1" stop-color="#C0E8FF"/>
</linearGradient>
<clipPath id="clip0_104_106">
<rect width="200" height="200" fill="white"/>
</clipPath>
</defs>
</svg>
