<svg width="200" height="200" viewBox="0 0 200 200" fill="none" xmlns="http://www.w3.org/2000/svg">
<g clip-path="url(#clip0_238_1161)">
<path fill-rule="evenodd" clip-rule="evenodd" d="M0 0C27.6142 0 50 22.3857 50 50C22.3858 50 0 27.6143 0 0ZM100 0C72.3858 0 50 22.3857 50 50C22.3858 50 0 72.3857 0 100C0 127.614 22.3858 150 50 150C22.3858 150 0 172.386 0 200C27.6142 200 50 177.614 50 150C50 177.614 72.3858 200 100 200C127.614 200 150 177.614 150 150C150 177.614 172.386 200 200 200C200 172.386 177.614 150 150 150C177.614 150 200 127.614 200 100C200 72.3857 177.614 50 150 50C177.614 50 200 27.6143 200 0C172.386 0 150 22.3857 150 50C150 22.3857 127.614 0 100 0ZM150 150C150 122.386 127.614 100 100 100C100 127.614 122.386 150 150 150ZM100 100C127.614 100 150 77.6143 150 50C150 77.6143 172.386 100 200 100C172.386 100 150 122.386 150 150C122.386 150 100 172.386 100 200C100 172.386 77.6142 150 50 150C77.6142 150 100 127.614 100 100ZM100 100C72.3858 100 50 122.386 50 150C50 122.386 27.6142 100 0 100C27.6142 100 50 77.6143 50 50C50 77.6143 72.3858 100 100 100ZM100 100C100 72.3857 122.386 50 150 50C122.386 50 100 27.6143 100 0C100 27.6143 77.6142 50 50 50C77.6142 50 100 72.3857 100 100Z" fill="url(#paint0_linear_238_1161)"/>
</g>
<defs>
<linearGradient id="paint0_linear_238_1161" x1="100" y1="0" x2="100" y2="200" gradientUnits="userSpaceOnUse">
<stop stop-color="#B8DBFC"/>
<stop offset="1" stop-color="#F8FBFE"/>
</linearGradient>
<clipPath id="clip0_238_1161">
<rect width="200" height="200" fill="white"/>
</clipPath>
</defs>
</svg>
