<svg width="200" height="200" viewBox="0 0 200 200" fill="none" xmlns="http://www.w3.org/2000/svg">
<g clip-path="url(#clip0_104_69)">
<path fill-rule="evenodd" clip-rule="evenodd" d="M120 14.2857C120 6.39593 113.604 0 105.714 0H94.2857C86.3959 0 80 6.39594 80 14.2857V17.2269C80 29.9541 64.6123 36.3279 55.6128 27.3284L53.533 25.2487C47.9541 19.6698 38.9089 19.6698 33.3299 25.2487L25.2487 33.3299C19.6698 38.9088 19.6698 47.954 25.2487 53.533L27.3285 55.6128C36.328 64.6123 29.9542 80 17.227 80H14.2857C6.39593 80 0 86.3959 0 94.2857V105.714C0 113.604 6.39593 120 14.2857 120H17.2269C29.9542 120 36.328 135.388 27.3285 144.387L25.2487 146.467C19.6698 152.046 19.6698 161.091 25.2487 166.67L33.3299 174.751C38.9089 180.33 47.9541 180.33 53.533 174.751L55.6128 172.671C64.6123 163.672 80 170.046 80 182.773V185.714C80 193.604 86.3959 200 94.2857 200H105.714C113.604 200 120 193.604 120 185.714V182.773C120 170.046 135.388 163.672 144.387 172.671L146.467 174.751C152.046 180.33 161.091 180.33 166.67 174.751L174.751 166.67C180.33 161.091 180.33 152.046 174.751 146.467L172.672 144.387C163.672 135.388 170.046 120 182.773 120H185.714C193.604 120 200 113.604 200 105.714V94.2857C200 86.3959 193.604 80 185.714 80H182.773C170.046 80 163.672 64.6123 172.671 55.6128L174.751 53.5329C180.33 47.954 180.33 38.9088 174.751 33.3299L166.67 25.2487C161.091 19.6697 152.046 19.6697 146.467 25.2487L144.387 27.3284C135.388 36.3279 120 29.9541 120 17.2269V14.2857Z" fill="url(#paint0_linear_104_69)"/>
</g>
<defs>
<linearGradient id="paint0_linear_104_69" x1="14" y1="26" x2="179" y2="179.5" gradientUnits="userSpaceOnUse">
<stop stop-color="#E9B8FF"/>
<stop offset="1" stop-color="#F9ECFF"/>
</linearGradient>
<clipPath id="clip0_104_69">
<rect width="200" height="200" fill="white"/>
</clipPath>
</defs>
</svg>
