<svg width="200" height="200" viewBox="0 0 200 200" fill="none" xmlns="http://www.w3.org/2000/svg">
<g clip-path="url(#clip0_104_55)">
<path d="M100 200C91.6667 200 84.7222 197.309 79.1667 191.927C73.6111 186.545 70.8333 180.035 70.8333 172.396C70.8333 168.056 71.7014 164.149 73.4375 160.677C75.1736 157.205 78.2118 153.385 82.5521 149.219C87.066 145.052 90.625 141.146 93.2292 137.5C96.0069 133.681 97.3958 130.382 97.3958 127.604V118.229C93.5764 117.361 90.191 115.625 87.2396 113.021C84.4618 110.243 82.6389 106.944 81.7708 103.125H72.3958C69.4444 103.125 65.9722 104.514 61.9792 107.292C57.9861 110.069 54.1667 113.455 50.5208 117.448C46.875 121.441 43.2292 124.392 39.5833 126.302C36.1111 128.212 32.1181 129.167 27.6042 129.167C19.7917 129.167 13.1944 126.389 7.8125 120.833C2.60417 115.278 0 108.333 0 100C0 91.6667 2.60417 84.7222 7.8125 79.1667C13.1944 73.6111 19.7917 70.8333 27.6042 70.8333C34.8958 70.8333 41.1458 73.4375 46.3542 78.6458C51.5625 83.8542 56.25 88.2812 60.4167 91.9271C64.5833 95.5729 68.5764 97.3958 72.3958 97.3958H81.7708C82.6389 93.4028 84.4618 90.1041 87.2396 87.5C90.191 84.7222 93.5764 82.9861 97.3958 82.2916V72.9167C97.3958 68.4028 93.9236 62.6736 86.9792 55.7292L81.5104 50.2604C74.3924 43.1424 70.8333 35.5903 70.8333 27.6042C70.8333 19.7917 73.6111 13.2812 79.1667 8.07291C84.8958 2.69097 91.8403 0 100 0C108.333 0 115.278 2.69097 120.833 8.07291C126.389 13.4549 129.167 19.9653 129.167 27.6042C129.167 36.4583 124.826 44.7917 116.146 52.6042C107.465 60.5903 103.125 67.3611 103.125 72.9167V82.2916C107.118 82.9861 110.417 84.7222 113.021 87.5C115.799 90.1041 117.535 93.4028 118.229 97.3958H127.604C133.507 97.3958 140.278 92.9687 147.917 84.1146C155.729 75.2604 163.889 70.8333 172.396 70.8333C180.208 70.8333 186.719 73.6979 191.927 79.4271C197.309 84.9826 200 91.8403 200 100C200 108.333 197.309 115.278 191.927 120.833C186.545 126.389 180.035 129.167 172.396 129.167C165.104 129.167 158.941 126.649 153.906 121.615C148.872 116.58 144.184 112.24 139.844 108.594C135.503 104.948 131.424 103.125 127.604 103.125H118.229C116.84 111.458 111.806 116.493 103.125 118.229V127.604C103.125 132.812 107.465 139.497 116.146 147.656C124.826 155.816 129.167 164.062 129.167 172.396C129.167 180.208 126.302 186.719 120.573 191.927C115.017 197.309 108.16 200 100 200Z" fill="url(#paint0_linear_104_55)"/>
</g>
<defs>
<linearGradient id="paint0_linear_104_55" x1="157.5" y1="32" x2="44" y2="147.5" gradientUnits="userSpaceOnUse">
<stop offset="0.0509862" stop-color="#FFB6E1"/>
<stop offset="1" stop-color="#FBE3EA"/>
</linearGradient>
<clipPath id="clip0_104_55">
<rect width="200" height="200" fill="white"/>
</clipPath>
</defs>
</svg>
