<svg width="200" height="200" viewBox="0 0 200 200" fill="none" xmlns="http://www.w3.org/2000/svg">
<g clip-path="url(#clip0_231_266)">
<path fill-rule="evenodd" clip-rule="evenodd" d="M131.721 18.3099C125.389 7.3642 113.554 0 100 0C86.4456 0 74.6111 7.3642 68.2794 18.3099H131.721ZM136.62 59.1549C136.62 38.9304 120.225 22.5352 100 22.5352C79.7755 22.5352 63.3803 38.9304 63.3803 59.1549L136.62 59.1549ZM63.3803 140.845C63.3803 161.07 79.7755 177.465 100 177.465C120.225 177.465 136.62 161.07 136.62 140.845H63.3803ZM177.465 100C177.465 120.225 161.07 136.62 140.845 136.62V63.3803C161.07 63.3803 177.465 79.7755 177.465 100ZM59.1549 63.3803C38.9304 63.3803 22.5352 79.7755 22.5352 100C22.5352 120.225 38.9304 136.62 59.1549 136.62L59.1549 63.3803ZM100 136.62C120.225 136.62 136.62 120.225 136.62 100C136.62 79.7755 120.225 63.3803 100 63.3803C79.7755 63.3803 63.3803 79.7755 63.3803 100C63.3803 120.225 79.7755 136.62 100 136.62ZM200 100.031C200 113.585 192.636 125.419 181.69 131.751V68.3099C192.636 74.6416 200 86.476 200 100.031ZM18.3099 68.3097C7.3642 74.6414 2.68548e-06 86.4759 0 100.03C0 113.585 7.3642 125.419 18.3099 131.751V68.3097ZM100.031 200C86.476 200 74.6416 192.636 68.3099 181.69H131.751C125.419 192.636 113.585 200 100.031 200ZM140.845 59.1549L177.465 59.1549C177.465 38.9304 161.07 22.5352 140.845 22.5352V59.1549ZM140.845 177.465L140.845 140.845H177.465C177.465 161.07 161.07 177.465 140.845 177.465ZM59.1549 140.845L22.5352 140.845C22.5352 161.07 38.9304 177.465 59.1549 177.465L59.1549 140.845ZM59.1549 22.5352L59.1549 59.1549L22.5352 59.1549C22.5352 38.9304 38.9304 22.5352 59.1549 22.5352Z" fill="url(#paint0_linear_231_266)"/>
</g>
<defs>
<linearGradient id="paint0_linear_231_266" x1="27.5" y1="19" x2="149" y2="174.5" gradientUnits="userSpaceOnUse">
<stop stop-color="#FFD9A0"/>
<stop offset="1" stop-color="#FFF5F1"/>
</linearGradient>
<clipPath id="clip0_231_266">
<rect width="200" height="200" fill="white"/>
</clipPath>
</defs>
</svg>
